<svg xmlns="http://www.w3.org/2000/svg" xmlns:xlink="http://www.w3.org/1999/xlink" contentStyleType="text/css" data-diagram-type="CLASS" height="1059px" preserveAspectRatio="none" style="width:2676px;height:1059px;background:#FFFFFF;" version="1.1" viewBox="0 0 2676 1059" width="2676px" zoomAndPan="magnify"><defs/><g><!--cluster net--><g id="cluster_net"><path d="M8.5,6 L35.6543,6 A3.75,3.75 0 0 1 38.1543,8.5 L45.1543,28.2969 L2666.5,28.2969 A2.5,2.5 0 0 1 2669,30.7969 L2669,1050 A2.5,2.5 0 0 1 2666.5,1052.5 L8.5,1052.5 A2.5,2.5 0 0 1 6,1050 L6,8.5 A2.5,2.5 0 0 1 8.5,6 " fill="transparent" style="stroke:#000000;stroke-width:1.5;"/><line style="stroke:#000000;stroke-width:1.5;" x1="6" x2="45.1543" y1="28.2969" y2="28.2969"/><text fill="#000000" font-family="sans-serif" font-size="14" font-weight="bold" lengthAdjust="spacing" textLength="26.1543" x="10" y="20.9951">net</text></g><!--cluster alephdev--><g id="cluster_alephdev"><path d="M32.5,49 L105.8721,49 A3.75,3.75 0 0 1 108.3721,51.5 L115.3721,71.2969 L2642.5,71.2969 A2.5,2.5 0 0 1 2645,73.7969 L2645,1026 A2.5,2.5 0 0 1 2642.5,1028.5 L32.5,1028.5 A2.5,2.5 0 0 1 30,1026 L30,51.5 A2.5,2.5 0 0 1 32.5,49 " fill="transparent" style="stroke:#000000;stroke-width:1.5;"/><line style="stroke:#000000;stroke-width:1.5;" x1="30" x2="115.3721" y1="71.2969" y2="71.2969"/><text fill="#000000" font-family="sans-serif" font-size="14" font-weight="bold" lengthAdjust="spacing" textLength="72.3721" x="34" y="63.9951">alephdev</text></g><!--cluster function--><g id="cluster_function"><path d="M430.5,92 L496.8994,92 A3.75,3.75 0 0 1 499.3994,94.5 L506.3994,114.2969 L1894.5,114.2969 A2.5,2.5 0 0 1 1897,116.7969 L1897,1002 A2.5,2.5 0 0 1 1894.5,1004.5 L430.5,1004.5 A2.5,2.5 0 0 1 428,1002 L428,94.5 A2.5,2.5 0 0 1 430.5,92 " fill="transparent" style="stroke:#000000;stroke-width:1.5;"/><line style="stroke:#000000;stroke-width:1.5;" x1="428" x2="506.3994" y1="114.2969" y2="114.2969"/><text fill="#000000" font-family="sans-serif" font-size="14" font-weight="bold" lengthAdjust="spacing" textLength="65.3994" x="432" y="106.9951">function</text></g><!--cluster logariphmic--><g id="cluster_logariphmic"><path d="M1351.5,503.5 L1445.7627,503.5 A3.75,3.75 0 0 1 1448.2627,506 L1455.2627,525.7969 L1820.5,525.7969 A2.5,2.5 0 0 1 1823,528.2969 L1823,829.5 A2.5,2.5 0 0 1 1820.5,832 L1351.5,832 A2.5,2.5 0 0 1 1349,829.5 L1349,506 A2.5,2.5 0 0 1 1351.5,503.5 " fill="transparent" style="stroke:#000000;stroke-width:1.5;"/><line style="stroke:#000000;stroke-width:1.5;" x1="1349" x2="1455.2627" y1="525.7969" y2="525.7969"/><text fill="#000000" font-family="sans-serif" font-size="14" font-weight="bold" lengthAdjust="spacing" textLength="93.2627" x="1353" y="518.4951">logariphmic</text></g><!--cluster trigonometric--><g id="cluster_trigonometric"><path d="M454.5,503.5 L563.8975,503.5 A3.75,3.75 0 0 1 566.3975,506 L573.3975,525.7969 L1322.5,525.7969 A2.5,2.5 0 0 1 1325,528.2969 L1325,978 A2.5,2.5 0 0 1 1322.5,980.5 L454.5,980.5 A2.5,2.5 0 0 1 452,978 L452,506 A2.5,2.5 0 0 1 454.5,503.5 " fill="transparent" style="stroke:#000000;stroke-width:1.5;"/><line style="stroke:#000000;stroke-width:1.5;" x1="452" x2="573.3975" y1="525.7969" y2="525.7969"/><text fill="#000000" font-family="sans-serif" font-size="14" font-weight="bold" lengthAdjust="spacing" textLength="108.3975" x="456" y="518.4951">trigonometric</text></g><!--class FunctionCSVExporter--><g id="elem_FunctionCSVExporter"><rect codeLine="2" fill="#F1F1F1" height="80.5938" id="FunctionCSVExporter" rx="2.5" ry="2.5" style="stroke:#181818;stroke-width:0.5;" width="715.9854" x="1913" y="110.5"/><ellipse cx="2192.3677" cy="126.5" fill="#ADD1B2" rx="11" ry="11" style="stroke:#181818;stroke-width:1;"/><path d="M2195.3364,132.1406 Q2194.7583,132.4375 2194.1177,132.5781 Q2193.4771,132.7344 2192.7739,132.7344 Q2190.2739,132.7344 2188.9458,131.0938 Q2187.6333,129.4375 2187.6333,126.3125 Q2187.6333,123.1875 2188.9458,121.5313 Q2190.2739,119.875 2192.7739,119.875 Q2193.4771,119.875 2194.1177,120.0313 Q2194.7739,120.1875 2195.3364,120.4844 L2195.3364,123.2031 Q2194.7114,122.625 2194.1177,122.3594 Q2193.5239,122.0781 2192.8989,122.0781 Q2191.5552,122.0781 2190.8677,123.1563 Q2190.1802,124.2188 2190.1802,126.3125 Q2190.1802,128.4063 2190.8677,129.4844 Q2191.5552,130.5469 2192.8989,130.5469 Q2193.5239,130.5469 2194.1177,130.2813 Q2194.7114,130 2195.3364,129.4219 L2195.3364,132.1406 Z " fill="#000000"/><text fill="#000000" font-family="sans-serif" font-size="14" lengthAdjust="spacing" textLength="148.75" x="2212.8677" y="131.3467">FunctionCSVExporter</text><line style="stroke:#181818;stroke-width:0.5;" x1="1914" x2="2627.9854" y1="142.5" y2="142.5"/><line style="stroke:#181818;stroke-width:0.5;" x1="1914" x2="2627.9854" y1="150.5" y2="150.5"/><ellipse cx="1924" cy="164.1484" fill="#84BE84" rx="3" ry="3" style="stroke:#038048;stroke-width:1;"/><text fill="#000000" font-family="sans-serif" font-size="14" lengthAdjust="spacing" textLength="689.9854" x="1933" y="167.4951">exportToCSV(function: IterableFunction, start: double, end: double, step: double, filename: String)</text><ellipse cx="1924" cy="180.4453" fill="#84BE84" rx="3" ry="3" style="stroke:#038048;stroke-width:1;"/><text fill="#000000" font-family="sans-serif" font-size="14" lengthAdjust="spacing" textLength="138.291" x="1933" y="183.792">main(args: String[])</text></g><!--class IterableFunction--><g id="elem_IterableFunction"><rect codeLine="7" fill="#F1F1F1" height="80.5938" id="IterableFunction" rx="2.5" ry="2.5" style="stroke:#181818;stroke-width:0.5;" width="366.4639" x="46" y="324.5"/><ellipse cx="167.8472" cy="340.5" fill="#A9DCDF" rx="11" ry="11" style="stroke:#181818;stroke-width:1;"/><path d="M167.9565,335.8438 L166.8003,340.9219 L169.1284,340.9219 L167.9565,335.8438 Z M166.4722,333.6094 L169.4565,333.6094 L172.8159,346 L170.3628,346 L169.5972,342.9375 L166.3159,342.9375 L165.5659,346 L163.1284,346 L166.4722,333.6094 Z " fill="#000000"/><text fill="#000000" font-family="sans-serif" font-size="14" font-style="italic" lengthAdjust="spacing" textLength="114.2695" x="188.3472" y="345.3467">IterableFunction</text><line style="stroke:#181818;stroke-width:0.5;" x1="47" x2="411.4639" y1="356.5" y2="356.5"/><ellipse cx="57" cy="370.1484" fill="transparent" rx="3" ry="3" style="stroke:#038048;stroke-width:1;"/><text fill="#000000" font-family="sans-serif" font-size="14" lengthAdjust="spacing" text-decoration="underline" textLength="116.4775" x="66" y="373.4951">EPSILON: double</text><line style="stroke:#181818;stroke-width:0.5;" x1="47" x2="411.4639" y1="380.7969" y2="380.7969"/><ellipse cx="57" cy="394.4453" fill="#84BE84" rx="3" ry="3" style="stroke:#038048;stroke-width:1;"/><text fill="#000000" font-family="sans-serif" font-size="14" lengthAdjust="spacing" textLength="340.4639" x="66" y="397.792">calculate(arg: double, precision: double): double</text></g><!--class FunctionalSystemClass--><g id="elem_FunctionalSystemClass"><rect codeLine="13" fill="#F1F1F1" height="227.2656" id="FunctionalSystemClass" rx="2.5" ry="2.5" style="stroke:#181818;stroke-width:0.5;" width="366.4639" x="1270" y="251.5"/><ellipse cx="1368.0718" cy="267.5" fill="#ADD1B2" rx="11" ry="11" style="stroke:#181818;stroke-width:1;"/><path d="M1371.0405,273.1406 Q1370.4624,273.4375 1369.8218,273.5781 Q1369.1812,273.7344 1368.478,273.7344 Q1365.978,273.7344 1364.6499,272.0938 Q1363.3374,270.4375 1363.3374,267.3125 Q1363.3374,264.1875 1364.6499,262.5313 Q1365.978,260.875 1368.478,260.875 Q1369.1812,260.875 1369.8218,261.0313 Q1370.478,261.1875 1371.0405,261.4844 L1371.0405,264.2031 Q1370.4155,263.625 1369.8218,263.3594 Q1369.228,263.0781 1368.603,263.0781 Q1367.2593,263.0781 1366.5718,264.1563 Q1365.8843,265.2188 1365.8843,267.3125 Q1365.8843,269.4063 1366.5718,270.4844 Q1367.2593,271.5469 1368.603,271.5469 Q1369.228,271.5469 1369.8218,271.2813 Q1370.4155,271 1371.0405,270.4219 L1371.0405,273.1406 Z " fill="#000000"/><text fill="#000000" font-family="sans-serif" font-size="14" lengthAdjust="spacing" textLength="161.8203" x="1388.5718" y="272.3467">FunctionalSystemClass</text><line style="stroke:#181818;stroke-width:0.5;" x1="1271" x2="1635.4639" y1="283.5" y2="283.5"/><rect fill="transparent" height="6" style="stroke:#C82930;stroke-width:1;" width="6" x="1278" y="294.1484"/><text fill="#000000" font-family="sans-serif" font-size="14" lengthAdjust="spacing" textLength="95.1904" x="1290" y="300.4951">cos: CosClass</text><rect fill="transparent" height="6" style="stroke:#C82930;stroke-width:1;" width="6" x="1278" y="310.4453"/><text fill="#000000" font-family="sans-serif" font-size="14" lengthAdjust="spacing" textLength="91.5811" x="1290" y="316.792">cot: CotClass</text><rect fill="transparent" height="6" style="stroke:#C82930;stroke-width:1;" width="6" x="1278" y="326.7422"/><text fill="#000000" font-family="sans-serif" font-size="14" lengthAdjust="spacing" textLength="94.9443" x="1290" y="333.0889">tan: TanClass</text><rect fill="transparent" height="6" style="stroke:#C82930;stroke-width:1;" width="6" x="1278" y="343.0391"/><text fill="#000000" font-family="sans-serif" font-size="14" lengthAdjust="spacing" textLength="94.8008" x="1290" y="349.3857">sec: SecClass</text><rect fill="transparent" height="6" style="stroke:#C82930;stroke-width:1;" width="6" x="1278" y="359.3359"/><text fill="#000000" font-family="sans-serif" font-size="14" lengthAdjust="spacing" textLength="137.6279" x="1290" y="365.6826">log3: AnyLogarithm</text><rect fill="transparent" height="6" style="stroke:#C82930;stroke-width:1;" width="6" x="1278" y="375.6328"/><text fill="#000000" font-family="sans-serif" font-size="14" lengthAdjust="spacing" textLength="137.6279" x="1290" y="381.9795">log5: AnyLogarithm</text><rect fill="transparent" height="6" style="stroke:#C82930;stroke-width:1;" width="6" x="1278" y="391.9297"/><text fill="#000000" font-family="sans-serif" font-size="14" lengthAdjust="spacing" textLength="153.7676" x="1290" y="398.2764">logE: BaseELogarithm</text><line style="stroke:#181818;stroke-width:0.5;" x1="1271" x2="1635.4639" y1="405.5781" y2="405.5781"/><ellipse cx="1281" cy="419.2266" fill="#84BE84" rx="3" ry="3" style="stroke:#038048;stroke-width:1;"/><text fill="#000000" font-family="sans-serif" font-size="14" lengthAdjust="spacing" textLength="172.7441" x="1290" y="422.5732">FunctionalSystemClass()</text><rect fill="#F24D5C" height="6" style="stroke:#C82930;stroke-width:1;" width="6" x="1278" y="432.5234"/><text fill="#000000" font-family="sans-serif" font-size="14" lengthAdjust="spacing" textLength="323.4492" x="1290" y="438.8701">negative(x: double, precision: double): double</text><rect fill="#F24D5C" height="6" style="stroke:#C82930;stroke-width:1;" width="6" x="1278" y="448.8203"/><text fill="#000000" font-family="sans-serif" font-size="14" lengthAdjust="spacing" textLength="317.1328" x="1290" y="455.167">positive(x: double, precision: double): double</text><ellipse cx="1281" cy="468.1172" fill="#84BE84" rx="3" ry="3" style="stroke:#038048;stroke-width:1;"/><text fill="#000000" font-family="sans-serif" font-size="14" lengthAdjust="spacing" textLength="340.4639" x="1290" y="471.4639">calculate(arg: double, precision: double): double</text></g><!--class IterableFunction--><g id="elem_IterableFunction"><rect fill="#F1F1F1" height="48" id="IterableFunction" rx="2.5" ry="2.5" style="stroke:#181818;stroke-width:0.5;" width="146.2695" x="1380" y="127"/><ellipse cx="1395" cy="143" fill="#ADD1B2" rx="11" ry="11" style="stroke:#181818;stroke-width:1;"/><path d="M1397.9688,148.6406 Q1397.3906,148.9375 1396.75,149.0781 Q1396.1094,149.2344 1395.4063,149.2344 Q1392.9063,149.2344 1391.5781,147.5938 Q1390.2656,145.9375 1390.2656,142.8125 Q1390.2656,139.6875 1391.5781,138.0313 Q1392.9063,136.375 1395.4063,136.375 Q1396.1094,136.375 1396.75,136.5313 Q1397.4063,136.6875 1397.9688,136.9844 L1397.9688,139.7031 Q1397.3438,139.125 1396.75,138.8594 Q1396.1563,138.5781 1395.5313,138.5781 Q1394.1875,138.5781 1393.5,139.6563 Q1392.8125,140.7188 1392.8125,142.8125 Q1392.8125,144.9063 1393.5,145.9844 Q1394.1875,147.0469 1395.5313,147.0469 Q1396.1563,147.0469 1396.75,146.7813 Q1397.3438,146.5 1397.9688,145.9219 L1397.9688,148.6406 Z " fill="#000000"/><text fill="#000000" font-family="sans-serif" font-size="14" lengthAdjust="spacing" textLength="114.2695" x="1409" y="147.8467">IterableFunction</text><line style="stroke:#181818;stroke-width:0.5;" x1="1381" x2="1525.2695" y1="159" y2="159"/><line style="stroke:#181818;stroke-width:0.5;" x1="1381" x2="1525.2695" y1="167" y2="167"/></g><!--class AnyLogarithm--><g id="elem_AnyLogarithm"><rect codeLine="28" fill="#F1F1F1" height="129.4844" id="AnyLogarithm" rx="2.5" ry="2.5" style="stroke:#181818;stroke-width:0.5;" width="442.1035" x="1365" y="538.5"/><ellipse cx="1532.6958" cy="554.5" fill="#ADD1B2" rx="11" ry="11" style="stroke:#181818;stroke-width:1;"/><path d="M1535.6646,560.1406 Q1535.0864,560.4375 1534.4458,560.5781 Q1533.8052,560.7344 1533.1021,560.7344 Q1530.6021,560.7344 1529.2739,559.0938 Q1527.9614,557.4375 1527.9614,554.3125 Q1527.9614,551.1875 1529.2739,549.5313 Q1530.6021,547.875 1533.1021,547.875 Q1533.8052,547.875 1534.4458,548.0313 Q1535.1021,548.1875 1535.6646,548.4844 L1535.6646,551.2031 Q1535.0396,550.625 1534.4458,550.3594 Q1533.8521,550.0781 1533.2271,550.0781 Q1531.8833,550.0781 1531.1958,551.1563 Q1530.5083,552.2188 1530.5083,554.3125 Q1530.5083,556.4063 1531.1958,557.4844 Q1531.8833,558.5469 1533.2271,558.5469 Q1533.8521,558.5469 1534.4458,558.2813 Q1535.0396,558 1535.6646,557.4219 L1535.6646,560.1406 Z " fill="#000000"/><text fill="#000000" font-family="sans-serif" font-size="14" lengthAdjust="spacing" textLength="98.2119" x="1553.1958" y="559.3467">AnyLogarithm</text><line style="stroke:#181818;stroke-width:0.5;" x1="1366" x2="1806.1035" y1="570.5" y2="570.5"/><rect fill="transparent" height="6" style="stroke:#C82930;stroke-width:1;" width="6" x="1373" y="581.1484"/><text fill="#000000" font-family="sans-serif" font-size="14" lengthAdjust="spacing" textLength="237.2754" x="1385" y="587.4951">baseELogarithm: BaseELogarithm</text><rect fill="transparent" height="6" style="stroke:#C82930;stroke-width:1;" width="6" x="1373" y="597.4453"/><text fill="#000000" font-family="sans-serif" font-size="14" lengthAdjust="spacing" textLength="60.792" x="1385" y="603.792">base: int</text><line style="stroke:#181818;stroke-width:0.5;" x1="1366" x2="1806.1035" y1="611.0938" y2="611.0938"/><ellipse cx="1376" cy="624.7422" fill="#84BE84" rx="3" ry="3" style="stroke:#038048;stroke-width:1;"/><text fill="#000000" font-family="sans-serif" font-size="14" lengthAdjust="spacing" textLength="169.9277" x="1385" y="628.0889">AnyLogarithm(base: int)</text><ellipse cx="1376" cy="641.0391" fill="#84BE84" rx="3" ry="3" style="stroke:#038048;stroke-width:1;"/><text fill="#000000" font-family="sans-serif" font-size="14" lengthAdjust="spacing" textLength="416.1035" x="1385" y="644.3857">AnyLogarithm(base: int, baseELogarithm: BaseELogarithm)</text><ellipse cx="1376" cy="657.3359" fill="#84BE84" rx="3" ry="3" style="stroke:#038048;stroke-width:1;"/><text fill="#000000" font-family="sans-serif" font-size="14" lengthAdjust="spacing" textLength="340.4639" x="1385" y="660.6826">calculate(arg: double, precision: double): double</text></g><!--class BaseELogarithm--><g id="elem_BaseELogarithm"><rect codeLine="36" fill="#F1F1F1" height="64.2969" id="BaseELogarithm" rx="2.5" ry="2.5" style="stroke:#181818;stroke-width:0.5;" width="366.4639" x="1403" y="752"/><ellipse cx="1524.7754" cy="768" fill="#ADD1B2" rx="11" ry="11" style="stroke:#181818;stroke-width:1;"/><path d="M1527.7441,773.6406 Q1527.166,773.9375 1526.5254,774.0781 Q1525.8848,774.2344 1525.1816,774.2344 Q1522.6816,774.2344 1521.3535,772.5938 Q1520.041,770.9375 1520.041,767.8125 Q1520.041,764.6875 1521.3535,763.0313 Q1522.6816,761.375 1525.1816,761.375 Q1525.8848,761.375 1526.5254,761.5313 Q1527.1816,761.6875 1527.7441,761.9844 L1527.7441,764.7031 Q1527.1191,764.125 1526.5254,763.8594 Q1525.9316,763.5781 1525.3066,763.5781 Q1523.9629,763.5781 1523.2754,764.6563 Q1522.5879,765.7188 1522.5879,767.8125 Q1522.5879,769.9063 1523.2754,770.9844 Q1523.9629,772.0469 1525.3066,772.0469 Q1525.9316,772.0469 1526.5254,771.7813 Q1527.1191,771.5 1527.7441,770.9219 L1527.7441,773.6406 Z " fill="#000000"/><text fill="#000000" font-family="sans-serif" font-size="14" lengthAdjust="spacing" textLength="114.4131" x="1545.2754" y="772.8467">BaseELogarithm</text><line style="stroke:#181818;stroke-width:0.5;" x1="1404" x2="1768.4639" y1="784" y2="784"/><line style="stroke:#181818;stroke-width:0.5;" x1="1404" x2="1768.4639" y1="792" y2="792"/><ellipse cx="1414" cy="805.6484" fill="#84BE84" rx="3" ry="3" style="stroke:#038048;stroke-width:1;"/><text fill="#000000" font-family="sans-serif" font-size="14" lengthAdjust="spacing" textLength="340.4639" x="1423" y="808.9951">calculate(arg: double, precision: double): double</text></g><!--class CosClass--><g id="elem_CosClass"><rect codeLine="42" fill="#F1F1F1" height="64.2969" id="CosClass" rx="2.5" ry="2.5" style="stroke:#181818;stroke-width:0.5;" width="366.4639" x="796" y="900.5"/><ellipse cx="943.7485" cy="916.5" fill="#ADD1B2" rx="11" ry="11" style="stroke:#181818;stroke-width:1;"/><path d="M946.7173,922.1406 Q946.1392,922.4375 945.4985,922.5781 Q944.8579,922.7344 944.1548,922.7344 Q941.6548,922.7344 940.3267,921.0938 Q939.0142,919.4375 939.0142,916.3125 Q939.0142,913.1875 940.3267,911.5313 Q941.6548,909.875 944.1548,909.875 Q944.8579,909.875 945.4985,910.0313 Q946.1548,910.1875 946.7173,910.4844 L946.7173,913.2031 Q946.0923,912.625 945.4985,912.3594 Q944.9048,912.0781 944.2798,912.0781 Q942.936,912.0781 942.2485,913.1563 Q941.561,914.2188 941.561,916.3125 Q941.561,918.4063 942.2485,919.4844 Q942.936,920.5469 944.2798,920.5469 Q944.9048,920.5469 945.4985,920.2813 Q946.0923,920 946.7173,919.4219 L946.7173,922.1406 Z " fill="#000000"/><text fill="#000000" font-family="sans-serif" font-size="14" lengthAdjust="spacing" textLength="62.4668" x="964.2485" y="921.3467">CosClass</text><line style="stroke:#181818;stroke-width:0.5;" x1="797" x2="1161.4639" y1="932.5" y2="932.5"/><line style="stroke:#181818;stroke-width:0.5;" x1="797" x2="1161.4639" y1="940.5" y2="940.5"/><ellipse cx="807" cy="954.1484" fill="#84BE84" rx="3" ry="3" style="stroke:#038048;stroke-width:1;"/><text fill="#000000" font-family="sans-serif" font-size="14" lengthAdjust="spacing" textLength="340.4639" x="816" y="957.4951">calculate(arg: double, precision: double): double</text></g><!--class CotClass--><g id="elem_CotClass"><rect codeLine="46" fill="#F1F1F1" height="129.4844" id="CotClass" rx="2.5" ry="2.5" style="stroke:#181818;stroke-width:0.5;" width="366.4639" x="475" y="538.5"/><ellipse cx="623.6509" cy="554.5" fill="#ADD1B2" rx="11" ry="11" style="stroke:#181818;stroke-width:1;"/><path d="M626.6196,560.1406 Q626.0415,560.4375 625.4009,560.5781 Q624.7603,560.7344 624.0571,560.7344 Q621.5571,560.7344 620.229,559.0938 Q618.9165,557.4375 618.9165,554.3125 Q618.9165,551.1875 620.229,549.5313 Q621.5571,547.875 624.0571,547.875 Q624.7603,547.875 625.4009,548.0313 Q626.0571,548.1875 626.6196,548.4844 L626.6196,551.2031 Q625.9946,550.625 625.4009,550.3594 Q624.8071,550.0781 624.1821,550.0781 Q622.8384,550.0781 622.1509,551.1563 Q621.4634,552.2188 621.4634,554.3125 Q621.4634,556.4063 622.1509,557.4844 Q622.8384,558.5469 624.1821,558.5469 Q624.8071,558.5469 625.4009,558.2813 Q625.9946,558 626.6196,557.4219 L626.6196,560.1406 Z " fill="#000000"/><text fill="#000000" font-family="sans-serif" font-size="14" lengthAdjust="spacing" textLength="60.6621" x="644.1509" y="559.3467">CotClass</text><line style="stroke:#181818;stroke-width:0.5;" x1="476" x2="840.4639" y1="570.5" y2="570.5"/><rect fill="transparent" height="6" style="stroke:#C82930;stroke-width:1;" width="6" x="483" y="581.1484"/><text fill="#000000" font-family="sans-serif" font-size="14" lengthAdjust="spacing" textLength="87.7051" x="495" y="587.4951">sin: SinClass</text><rect fill="transparent" height="6" style="stroke:#C82930;stroke-width:1;" width="6" x="483" y="597.4453"/><text fill="#000000" font-family="sans-serif" font-size="14" lengthAdjust="spacing" textLength="95.1904" x="495" y="603.792">cos: CosClass</text><line style="stroke:#181818;stroke-width:0.5;" x1="476" x2="840.4639" y1="611.0938" y2="611.0938"/><ellipse cx="486" cy="624.7422" fill="#84BE84" rx="3" ry="3" style="stroke:#038048;stroke-width:1;"/><text fill="#000000" font-family="sans-serif" font-size="14" lengthAdjust="spacing" textLength="71.5859" x="495" y="628.0889">CotClass()</text><ellipse cx="486" cy="641.0391" fill="#84BE84" rx="3" ry="3" style="stroke:#038048;stroke-width:1;"/><text fill="#000000" font-family="sans-serif" font-size="14" lengthAdjust="spacing" textLength="263.3818" x="495" y="644.3857">CotClass(sin: SinClass, cos: CosClass)</text><ellipse cx="486" cy="657.3359" fill="#84BE84" rx="3" ry="3" style="stroke:#038048;stroke-width:1;"/><text fill="#000000" font-family="sans-serif" font-size="14" lengthAdjust="spacing" textLength="340.4639" x="495" y="660.6826">calculate(arg: double, precision: double): double</text></g><!--class SecClass--><g id="elem_SecClass"><rect codeLine="54" fill="#F1F1F1" height="113.1875" id="SecClass" rx="2.5" ry="2.5" style="stroke:#181818;stroke-width:0.5;" width="366.4639" x="906" y="727.5"/><ellipse cx="1053.9673" cy="743.5" fill="#ADD1B2" rx="11" ry="11" style="stroke:#181818;stroke-width:1;"/><path d="M1056.936,749.1406 Q1056.3579,749.4375 1055.7173,749.5781 Q1055.0767,749.7344 1054.3735,749.7344 Q1051.8735,749.7344 1050.5454,748.0938 Q1049.2329,746.4375 1049.2329,743.3125 Q1049.2329,740.1875 1050.5454,738.5313 Q1051.8735,736.875 1054.3735,736.875 Q1055.0767,736.875 1055.7173,737.0313 Q1056.3735,737.1875 1056.936,737.4844 L1056.936,740.2031 Q1056.311,739.625 1055.7173,739.3594 Q1055.1235,739.0781 1054.4985,739.0781 Q1053.1548,739.0781 1052.4673,740.1563 Q1051.7798,741.2188 1051.7798,743.3125 Q1051.7798,745.4063 1052.4673,746.4844 Q1053.1548,747.5469 1054.4985,747.5469 Q1055.1235,747.5469 1055.7173,747.2813 Q1056.311,747 1056.936,746.4219 L1056.936,749.1406 Z " fill="#000000"/><text fill="#000000" font-family="sans-serif" font-size="14" lengthAdjust="spacing" textLength="62.0293" x="1074.4673" y="748.3467">SecClass</text><line style="stroke:#181818;stroke-width:0.5;" x1="907" x2="1271.4639" y1="759.5" y2="759.5"/><rect fill="transparent" height="6" style="stroke:#C82930;stroke-width:1;" width="6" x="914" y="770.1484"/><text fill="#000000" font-family="sans-serif" font-size="14" lengthAdjust="spacing" textLength="95.1904" x="926" y="776.4951">cos: CosClass</text><line style="stroke:#181818;stroke-width:0.5;" x1="907" x2="1271.4639" y1="783.7969" y2="783.7969"/><ellipse cx="917" cy="797.4453" fill="#84BE84" rx="3" ry="3" style="stroke:#038048;stroke-width:1;"/><text fill="#000000" font-family="sans-serif" font-size="14" lengthAdjust="spacing" textLength="72.9531" x="926" y="800.792">SecClass()</text><ellipse cx="917" cy="813.7422" fill="#84BE84" rx="3" ry="3" style="stroke:#038048;stroke-width:1;"/><text fill="#000000" font-family="sans-serif" font-size="14" lengthAdjust="spacing" textLength="168.1436" x="926" y="817.0889">SecClass(cos: CosClass)</text><ellipse cx="917" cy="830.0391" fill="#84BE84" rx="3" ry="3" style="stroke:#038048;stroke-width:1;"/><text fill="#000000" font-family="sans-serif" font-size="14" lengthAdjust="spacing" textLength="340.4639" x="926" y="833.3857">calculate(arg: double, precision: double): double</text></g><!--class SinClass--><g id="elem_SinClass"><rect codeLine="61" fill="#F1F1F1" height="113.1875" id="SinClass" rx="2.5" ry="2.5" style="stroke:#181818;stroke-width:0.5;" width="366.4639" x="468" y="727.5"/><ellipse cx="617.7412" cy="743.5" fill="#ADD1B2" rx="11" ry="11" style="stroke:#181818;stroke-width:1;"/><path d="M620.71,749.1406 Q620.1318,749.4375 619.4912,749.5781 Q618.8506,749.7344 618.1475,749.7344 Q615.6475,749.7344 614.3193,748.0938 Q613.0068,746.4375 613.0068,743.3125 Q613.0068,740.1875 614.3193,738.5313 Q615.6475,736.875 618.1475,736.875 Q618.8506,736.875 619.4912,737.0313 Q620.1475,737.1875 620.71,737.4844 L620.71,740.2031 Q620.085,739.625 619.4912,739.3594 Q618.8975,739.0781 618.2725,739.0781 Q616.9287,739.0781 616.2412,740.1563 Q615.5537,741.2188 615.5537,743.3125 Q615.5537,745.4063 616.2412,746.4844 Q616.9287,747.5469 618.2725,747.5469 Q618.8975,747.5469 619.4912,747.2813 Q620.085,747 620.71,746.4219 L620.71,749.1406 Z " fill="#000000"/><text fill="#000000" font-family="sans-serif" font-size="14" lengthAdjust="spacing" textLength="58.4814" x="638.2412" y="748.3467">SinClass</text><line style="stroke:#181818;stroke-width:0.5;" x1="469" x2="833.4639" y1="759.5" y2="759.5"/><rect fill="transparent" height="6" style="stroke:#C82930;stroke-width:1;" width="6" x="476" y="770.1484"/><text fill="#000000" font-family="sans-serif" font-size="14" lengthAdjust="spacing" textLength="99.6406" x="488" y="776.4951">cos : CosClass</text><line style="stroke:#181818;stroke-width:0.5;" x1="469" x2="833.4639" y1="783.7969" y2="783.7969"/><ellipse cx="479" cy="797.4453" fill="#84BE84" rx="3" ry="3" style="stroke:#038048;stroke-width:1;"/><text fill="#000000" font-family="sans-serif" font-size="14" lengthAdjust="spacing" textLength="69.4053" x="488" y="800.792">SinClass()</text><ellipse cx="479" cy="813.7422" fill="#84BE84" rx="3" ry="3" style="stroke:#038048;stroke-width:1;"/><text fill="#000000" font-family="sans-serif" font-size="14" lengthAdjust="spacing" textLength="164.5957" x="488" y="817.0889">SinClass(cos: CosClass)</text><ellipse cx="479" cy="830.0391" fill="#84BE84" rx="3" ry="3" style="stroke:#038048;stroke-width:1;"/><text fill="#000000" font-family="sans-serif" font-size="14" lengthAdjust="spacing" textLength="340.4639" x="488" y="833.3857">calculate(arg: double, precision: double): double</text></g><!--class TanClass--><g id="elem_TanClass"><rect codeLine="68" fill="#F1F1F1" height="129.4844" id="TanClass" rx="2.5" ry="2.5" style="stroke:#181818;stroke-width:0.5;" width="366.4639" x="905" y="538.5"/><ellipse cx="1052.564" cy="554.5" fill="#ADD1B2" rx="11" ry="11" style="stroke:#181818;stroke-width:1;"/><path d="M1055.5327,560.1406 Q1054.9546,560.4375 1054.314,560.5781 Q1053.6733,560.7344 1052.9702,560.7344 Q1050.4702,560.7344 1049.1421,559.0938 Q1047.8296,557.4375 1047.8296,554.3125 Q1047.8296,551.1875 1049.1421,549.5313 Q1050.4702,547.875 1052.9702,547.875 Q1053.6733,547.875 1054.314,548.0313 Q1054.9702,548.1875 1055.5327,548.4844 L1055.5327,551.2031 Q1054.9077,550.625 1054.314,550.3594 Q1053.7202,550.0781 1053.0952,550.0781 Q1051.7515,550.0781 1051.064,551.1563 Q1050.3765,552.2188 1050.3765,554.3125 Q1050.3765,556.4063 1051.064,557.4844 Q1051.7515,558.5469 1053.0952,558.5469 Q1053.7202,558.5469 1054.314,558.2813 Q1054.9077,558 1055.5327,557.4219 L1055.5327,560.1406 Z " fill="#000000"/><text fill="#000000" font-family="sans-serif" font-size="14" lengthAdjust="spacing" textLength="62.8359" x="1073.064" y="559.3467">TanClass</text><line style="stroke:#181818;stroke-width:0.5;" x1="906" x2="1270.4639" y1="570.5" y2="570.5"/><rect fill="transparent" height="6" style="stroke:#C82930;stroke-width:1;" width="6" x="913" y="581.1484"/><text fill="#000000" font-family="sans-serif" font-size="14" lengthAdjust="spacing" textLength="87.7051" x="925" y="587.4951">sin: SinClass</text><rect fill="transparent" height="6" style="stroke:#C82930;stroke-width:1;" width="6" x="913" y="597.4453"/><text fill="#000000" font-family="sans-serif" font-size="14" lengthAdjust="spacing" textLength="95.1904" x="925" y="603.792">cos: CosClass</text><line style="stroke:#181818;stroke-width:0.5;" x1="906" x2="1270.4639" y1="611.0938" y2="611.0938"/><ellipse cx="916" cy="624.7422" fill="#84BE84" rx="3" ry="3" style="stroke:#038048;stroke-width:1;"/><text fill="#000000" font-family="sans-serif" font-size="14" lengthAdjust="spacing" textLength="73.7598" x="925" y="628.0889">TanClass()</text><ellipse cx="916" cy="641.0391" fill="#84BE84" rx="3" ry="3" style="stroke:#038048;stroke-width:1;"/><text fill="#000000" font-family="sans-serif" font-size="14" lengthAdjust="spacing" textLength="265.5557" x="925" y="644.3857">TanClass(sin: SinClass, cos: CosClass)</text><ellipse cx="916" cy="657.3359" fill="#84BE84" rx="3" ry="3" style="stroke:#038048;stroke-width:1;"/><text fill="#000000" font-family="sans-serif" font-size="14" lengthAdjust="spacing" textLength="340.4639" x="925" y="660.6826">calculate(arg: double, precision: double): double</text></g><!--reverse link IterableFunction to FunctionalSystemClass--><g id="link_IterableFunction_FunctionalSystemClass"><path d="M1453,193.09 C1453,211.98 1453,222.2 1453,251.11 " fill="transparent" id="IterableFunction-backto-FunctionalSystemClass" style="stroke:#181818;stroke-width:1;"/><polygon fill="transparent" points="1453,175.09,1447,193.09,1459,193.09,1453,175.09" style="stroke:#181818;stroke-width:1;"/></g><!--reverse link IterableFunction to AnyLogarithm--><g id="link_IterableFunction_AnyLogarithm"><path d="M296.8145,415.7712 C335.1645,441.9612 374.59,463.91 428,478.5 C524.16,504.78 1227.37,475.38 1325,495.5 C1369.46,504.66 1415.96,521.16 1457.19,538.48 " fill="transparent" id="IterableFunction-backto-AnyLogarithm" style="stroke:#181818;stroke-width:1;"/><polygon fill="transparent" points="281.95,405.62,293.4307,420.7261,300.1982,410.8164,281.95,405.62" style="stroke:#181818;stroke-width:1;"/></g><!--reverse link IterableFunction to BaseELogarithm--><g id="link_IterableFunction_BaseELogarithm"><path d="M302.4255,416.566 C333.3855,439.806 355.63,460.58 381,495.5 C429.61,562.41 384.88,619.18 452,667.5 C530.91,724.31 1228.71,714.02 1325,727.5 C1368.58,733.6 1415.76,742.82 1457.87,752 " fill="transparent" id="IterableFunction-backto-BaseELogarithm" style="stroke:#181818;stroke-width:1;"/><polygon fill="transparent" points="288.03,405.76,298.8236,421.3645,306.0275,411.7674,288.03,405.76" style="stroke:#181818;stroke-width:1;"/></g><!--reverse link IterableFunction to CosClass--><g id="link_IterableFunction_CosClass"><path d="M222.6356,423.5284 C217.2556,483.6484 215.79,582.07 259,667.5 C310.85,770 347.67,790.33 451,840.5 C558.31,892.61 690.62,915.34 795.94,925.06 " fill="transparent" id="IterableFunction-backto-CosClass" style="stroke:#181818;stroke-width:1;"/><polygon fill="transparent" points="224.24,405.6,216.6595,422.9936,228.6118,424.0631,224.24,405.6" style="stroke:#181818;stroke-width:1;"/></g><!--reverse link IterableFunction to CotClass--><g id="link_IterableFunction_CotClass"><path d="M309.1616,414.7357 C347.5116,437.4257 381.98,456.52 428,478.5 C446.54,487.36 452.47,486.62 471,495.5 C497.78,508.34 525.96,523.48 552.09,538.25 " fill="transparent" id="IterableFunction-backto-CotClass" style="stroke:#181818;stroke-width:1;"/><polygon fill="transparent" points="293.67,405.57,306.1064,419.8996,312.2168,409.5718,293.67,405.57" style="stroke:#181818;stroke-width:1;"/></g><!--reverse link IterableFunction to SecClass--><g id="link_IterableFunction_SecClass"><path d="M272.8429,419.7008 C292.7829,444.7408 307,464.11 327,495.5 C373.47,568.44 347.15,617.9 418,667.5 C577.52,779.17 660.55,691.93 852,727.5 C869.55,730.76 887.77,734.46 905.95,738.36 " fill="transparent" id="IterableFunction-backto-SecClass" style="stroke:#181818;stroke-width:1;"/><polygon fill="transparent" points="261.63,405.62,268.1493,423.4385,277.5366,415.9632,261.63,405.62" style="stroke:#181818;stroke-width:1;"/></g><!--reverse link IterableFunction to SinClass--><g id="link_IterableFunction_SinClass"><path d="M242.0156,423.1576 C257.7956,486.5876 292.64,593.72 370,667.5 C389.28,685.88 437.08,707.74 487.9,727.47 " fill="transparent" id="IterableFunction-backto-SinClass" style="stroke:#181818;stroke-width:1;"/><polygon fill="transparent" points="237.67,405.69,236.193,424.6061,247.8381,421.7091,237.67,405.69" style="stroke:#181818;stroke-width:1;"/></g><!--reverse link IterableFunction to TanClass--><g id="link_IterableFunction_TanClass"><path d="M297.356,415.6501 C335.736,441.6301 374.94,463.42 428,478.5 C520.2,504.71 765.84,472.96 859,495.5 C898.1,504.96 938.59,521.32 974.45,538.42 " fill="transparent" id="IterableFunction-backto-TanClass" style="stroke:#181818;stroke-width:1;"/><polygon fill="transparent" points="282.45,405.56,293.9927,420.6188,300.7194,410.6814,282.45,405.56" style="stroke:#181818;stroke-width:1;"/></g><!--link FunctionalSystemClass to CosClass--><g id="link_FunctionalSystemClass_CosClass"><path codeLine="79" d="M1636.11,379.19 C1714.93,395.04 1800.06,428.01 1849,495.5 C1939.26,619.99 1933.98,734.06 1823,840.5 C1776.27,885.32 1401.9021,911.1825 1168.0321,923.1825 " fill="transparent" id="FunctionalSystemClass-to-CosClass" style="stroke:#181818;stroke-width:1;"/><polygon fill="#181818" points="1162.04,923.49,1171.2331,927.0236,1167.0334,923.2338,1170.8232,919.0341,1162.04,923.49" style="stroke:#181818;stroke-width:1;"/></g><!--link FunctionalSystemClass to CotClass--><g id="link_FunctionalSystemClass_CotClass"><path codeLine="80" d="M1269.81,477.32 C1268.54,477.72 1267.27,478.12 1266,478.5 C1185.51,502.81 969.69,475.57 888,495.5 C848.88,505.04 813.7718,518.8001 777.8218,535.8401 " fill="transparent" id="FunctionalSystemClass-to-CotClass" style="stroke:#181818;stroke-width:1;"/><polygon fill="#181818" points="772.4,538.41,782.2459,538.1697,776.9182,536.2684,778.8194,530.9407,772.4,538.41" style="stroke:#181818;stroke-width:1;"/></g><!--link FunctionalSystemClass to TanClass--><g id="link_FunctionalSystemClass_TanClass"><path codeLine="81" d="M1278.78,478.64 C1247.05,499.16 1220.019,516.643 1191.459,535.103 " fill="transparent" id="FunctionalSystemClass-to-TanClass" style="stroke:#181818;stroke-width:1;"/><polygon fill="#181818" points="1186.42,538.36,1196.1499,536.8338,1190.6192,535.6458,1191.8072,530.1151,1186.42,538.36" style="stroke:#181818;stroke-width:1;"/></g><!--link FunctionalSystemClass to SecClass--><g id="link_FunctionalSystemClass_SecClass"><path codeLine="82" d="M1359.12,478.51 C1355.54,484.15 1352.15,489.83 1349,495.5 C1309.75,566.31 1340.62,605.13 1289,667.5 C1269.32,691.28 1248.5036,708.0878 1221.8536,724.3278 " fill="transparent" id="FunctionalSystemClass-to-SecClass" style="stroke:#181818;stroke-width:1;"/><polygon fill="#181818" points="1216.73,727.45,1226.4969,726.1824,1220.9997,724.8481,1222.334,719.3509,1216.73,727.45" style="stroke:#181818;stroke-width:1;"/></g><!--link FunctionalSystemClass to AnyLogarithm--><g id="link_FunctionalSystemClass_AnyLogarithm"><path codeLine="83" d="M1516.58,478.82 C1528.13,499.32 1536.8525,514.8039 1547.2525,533.2439 " fill="transparent" id="FunctionalSystemClass-to-AnyLogarithm" style="stroke:#181818;stroke-width:1;"/><polygon fill="#181818" points="1550.2,538.47,1549.2629,528.6658,1547.7438,534.1149,1542.2947,532.5958,1550.2,538.47" style="stroke:#181818;stroke-width:1;"/></g><!--link FunctionalSystemClass to BaseELogarithm--><g id="link_FunctionalSystemClass_BaseELogarithm"><path codeLine="84" d="M1636.42,384.72 C1707.29,401.95 1781.62,434.46 1825,495.5 C1869.29,557.81 1865.63,602.74 1825,667.5 C1799.65,707.9 1761.2992,732.2874 1717.9692,749.6574 " fill="transparent" id="FunctionalSystemClass-to-BaseELogarithm" style="stroke:#181818;stroke-width:1;"/><polygon fill="#181818" points="1712.4,751.89,1722.2421,752.254,1717.041,750.0295,1719.2654,744.8284,1712.4,751.89" style="stroke:#181818;stroke-width:1;"/></g><!--link AnyLogarithm to BaseELogarithm--><g id="link_AnyLogarithm_BaseELogarithm"><path codeLine="85" d="M1586,667.61 C1586,696.15 1586,722.53 1586,745.71 " fill="transparent" id="AnyLogarithm-to-BaseELogarithm" style="stroke:#181818;stroke-width:1;"/><polygon fill="#181818" points="1586,751.71,1590,742.71,1586,746.71,1582,742.71,1586,751.71" style="stroke:#181818;stroke-width:1;"/></g><!--link CotClass to SinClass--><g id="link_CotClass_SinClass"><path codeLine="86" d="M655.51,667.61 C654.75,687.11 654.1544,702.3946 653.4144,721.3246 " fill="transparent" id="CotClass-to-SinClass" style="stroke:#181818;stroke-width:1;"/><polygon fill="#181818" points="653.18,727.32,657.5285,718.4831,653.3753,722.3238,649.5346,718.1706,653.18,727.32" style="stroke:#181818;stroke-width:1;"/></g><!--link CotClass to CosClass--><g id="link_CotClass_CosClass"><path codeLine="87" d="M786.02,667.64 C810.51,684.41 834.07,704.4 852,727.5 C884.41,769.24 861.46,795.4 889,840.5 C902.66,862.88 918.4163,879.9174 936.2163,896.1474 " fill="transparent" id="CotClass-to-CosClass" style="stroke:#181818;stroke-width:1;"/><polygon fill="#181818" points="940.65,900.19,936.6946,891.1703,936.9553,896.8212,931.3044,897.0819,940.65,900.19" style="stroke:#181818;stroke-width:1;"/></g><!--link SecClass to CosClass--><g id="link_SecClass_CosClass"><path codeLine="88" d="M1047.1,840.8 C1031.92,861.02 1018.9335,878.3227 1005.9235,895.6427 " fill="transparent" id="SecClass-to-CosClass" style="stroke:#181818;stroke-width:1;"/><polygon fill="#181818" points="1002.32,900.44,1010.9235,895.6464,1005.323,896.4422,1004.5271,890.8416,1002.32,900.44" style="stroke:#181818;stroke-width:1;"/></g><!--link SinClass to CosClass--><g id="link_SinClass_CosClass"><path codeLine="89" d="M775.47,840.59 C820.78,860.83 864.8816,880.5331 903.7716,897.9031 " fill="transparent" id="SinClass-to-CosClass" style="stroke:#181818;stroke-width:1;"/><polygon fill="#181818" points="909.25,900.35,902.6637,893.0274,904.6847,898.3109,899.4012,900.3319,909.25,900.35" style="stroke:#181818;stroke-width:1;"/></g><!--link TanClass to SinClass--><g id="link_TanClass_SinClass"><path codeLine="90" d="M932.7,667.61 C884.98,687.16 838.4223,706.2258 792.1323,725.1858 " fill="transparent" id="TanClass-to-SinClass" style="stroke:#181818;stroke-width:1;"/><polygon fill="#181818" points="786.58,727.46,796.4246,727.7503,791.2069,725.5649,793.3923,720.3472,786.58,727.46" style="stroke:#181818;stroke-width:1;"/></g><!--link TanClass to CosClass--><g id="link_TanClass_CosClass"><path codeLine="91" d="M1234.21,667.64 C1256.58,683.87 1276.63,703.66 1290,727.5 C1314.56,771.31 1320.12,800.31 1290,840.5 C1271.53,865.15 1217.7911,883.9466 1155.6611,899.0066 " fill="transparent" id="TanClass-to-CosClass" style="stroke:#181818;stroke-width:1;"/><polygon fill="#181818" points="1149.83,900.42,1159.519,902.1873,1154.6893,899.2421,1157.6344,894.4124,1149.83,900.42" style="stroke:#181818;stroke-width:1;"/></g><!--SRC=[nLR1QkCm4BtdAtIqITBBiXSV2hiX2uMoMt3fPTc3eamSiR9ah4b9AVdtAhObMuvYbmGQNnBFUzAyUHh9AYZxJpCW4l2E2YYsQtWbxnDY7YQerkJNJZBaIYxIb-M-K2L2sU37PqgW2ZuhWqURXfkG1qEZAm5sz8nef2KcPArs9ZmZ8DVjYqOeshSD5o1f3Wb9iUGoYplPSifbHCjCM_3llne-JAeVkj9OKeQD-BuCJ_cxaOIS7SZoANru_FFRAkXG61Li9oZ2CMUhi2Y1SLqLMeTYRsoZfMYitPmczwsb8dqp5kIBAWfxDEOCQZy-SyAKSM6XT3Ni1CCZXY4CgT7zJ6K8qy2Ciy12c53PjuJya6-FAgCbnsr-IlW-HbWcv2VLi0nJfc5FehWtaOJCBDqhHFjFBqexk52QNpZuqexeT4MtCqHbGh7DEUkjRjqWNIjTNtHtwjr8azG5hpp31nUW7P0GBl44ctgQ8aUCFysSZSW9pNIvwJtZMslzf1URUxssWVOm1rocfCh1_0atYDtzDzGVL8NNgJBd43U9KnuueyRElhegAo6AXq0loyoVz8lwq9wrLtWrveLD4VJ2WJSflh7-kkB9SFLDZd3r5hn5zVOJVCDjOYK4pN7WLsyJ_zzXOjmBNvNcy_kskY4AZb7STUWynTsApbEygyzvMk_xwttb0xWxJYiLTh6zg3F17IT-rEupB-hwpvlNYrhk1m00]--></g></svg>