<svg xmlns="http://www.w3.org/2000/svg" xmlns:xlink="http://www.w3.org/1999/xlink" contentStyleType="text/css" data-diagram-type="DESCRIPTION" height="898px" preserveAspectRatio="none" style="width:1730px;height:898px;background:#FFFFFF;" version="1.1" viewBox="0 0 1730 898" width="1730px" zoomAndPan="magnify"><defs/><g><!--cluster ??????????? ???? (angely-sveta.ru ? ?????????)--><g id="cluster_&#1058;&#1077;&#1089;&#1090;&#1080;&#1088;&#1091;&#1077;&#1084;&#1099;&#1081; &#1057;&#1072;&#1081;&#1090; (angely-sveta.ru &#1080; &#1089;&#1074;&#1103;&#1079;&#1072;&#1085;&#1085;&#1099;&#1077;)"><rect fill="transparent" height="821" rx="2.5" ry="2.5" style="stroke:#181818;stroke-width:1;" width="1568" x="156" y="7"/><text fill="#000000" font-family="sans-serif" font-size="14" font-weight="bold" lengthAdjust="spacing" textLength="396.751" x="741.6245" y="21.9951">&#1058;&#1077;&#1089;&#1090;&#1080;&#1088;&#1091;&#1077;&#1084;&#1099;&#1081; &#1057;&#1072;&#1081;&#1090; (angely-sveta.ru &#1080; &#1089;&#1074;&#1103;&#1079;&#1072;&#1085;&#1085;&#1099;&#1077;)</text></g><g id="elem_UC_Enter"><ellipse cx="364.9848" cy="59.797" fill="#F1F1F1" rx="74.4848" ry="17.297" style="stroke:#181818;stroke-width:0.5;"/><text fill="#000000" font-family="sans-serif" font-size="14" lengthAdjust="spacing" textLength="104.6855" x="309.642" y="63.5445">&#1042;&#1086;&#1081;&#1090;&#1080; &#1085;&#1072; &#1089;&#1072;&#1081;&#1090;</text></g><g id="elem_UC_ChangeLang"><ellipse cx="365.1667" cy="134.1333" fill="#F1F1F1" rx="93.6667" ry="21.1333" style="stroke:#181818;stroke-width:0.5;"/><text fill="#000000" font-family="sans-serif" font-size="14" lengthAdjust="spacing" textLength="149.9941" x="290.1696" y="136.98">&#1057;&#1084;&#1077;&#1085;&#1080;&#1090;&#1100; &#1103;&#1079;&#1099;&#1082; &#1089;&#1072;&#1081;&#1090;&#1072;</text></g><g id="elem_UC_GoToEvacuation"><ellipse cx="365.061" cy="217.9122" fill="#F1F1F1" rx="127.561" ry="27.9122" style="stroke:#181818;stroke-width:0.5;"/><text fill="#000000" font-family="sans-serif" font-size="14" lengthAdjust="spacing" textLength="223.4189" x="253.3515" y="220.7589">&#1055;&#1077;&#1088;&#1077;&#1081;&#1090;&#1080; &#1074; &#1088;&#1072;&#1079;&#1076;&#1077;&#1083; '&#1069;&#1074;&#1072;&#1082;&#1091;&#1072;&#1094;&#1080;&#1103;'</text></g><g id="elem_UC_ViewEvacuationInfo"><ellipse cx="944.2986" cy="77.9597" fill="#F1F1F1" rx="165.2986" ry="35.4597" style="stroke:#181818;stroke-width:0.5;"/><text fill="#000000" font-family="sans-serif" font-size="14" lengthAdjust="spacing" textLength="302.2031" x="793.197" y="80.8064">&#1055;&#1088;&#1086;&#1089;&#1084;&#1086;&#1090;&#1088;&#1077;&#1090;&#1100; &#1080;&#1085;&#1092;&#1086;&#1088;&#1084;&#1072;&#1094;&#1080;&#1102; &#1086;&#1073; &#1101;&#1074;&#1072;&#1082;&#1091;&#1072;&#1094;&#1080;&#1080;</text></g><g id="elem_UC_GoToTalks"><ellipse cx="364.8847" cy="318.9769" fill="#F1F1F1" rx="177.8847" ry="37.9769" style="stroke:#181818;stroke-width:0.5;"/><text fill="#000000" font-family="sans-serif" font-size="14" lengthAdjust="spacing" textLength="328.1455" x="200.812" y="321.8236">&#1055;&#1077;&#1088;&#1077;&#1081;&#1090;&#1080; &#1074; &#1088;&#1072;&#1079;&#1076;&#1077;&#1083; '&#1056;&#1072;&#1079;&#1075;&#1086;&#1074;&#1086;&#1088;&#1099; &#1089; &#1085;&#1072;&#1079;&#1080;&#1076;&#1072;&#1085;&#1080;&#1077;&#1084;'</text></g><g id="elem_UC_GoToAdvRes"><ellipse cx="365.183" cy="426.9366" fill="#F1F1F1" rx="162.683" ry="34.9366" style="stroke:#181818;stroke-width:0.5;"/><text fill="#000000" font-family="sans-serif" font-size="14" lengthAdjust="spacing" textLength="296.7959" x="216.785" y="429.7833">&#1055;&#1077;&#1088;&#1077;&#1081;&#1090;&#1080; &#1074; &#1088;&#1072;&#1079;&#1076;&#1077;&#1083; 'Advertising resources'</text></g><g id="elem_UC_ViewWarning"><ellipse cx="944.4816" cy="281.0963" fill="#F1F1F1" rx="160.9816" ry="34.5963" style="stroke:#181818;stroke-width:0.5;"/><text fill="#000000" font-family="sans-serif" font-size="14" lengthAdjust="spacing" textLength="293.2754" x="797.8439" y="283.943">&#1055;&#1088;&#1086;&#1089;&#1084;&#1086;&#1090;&#1088;&#1077;&#1090;&#1100; '&#1055;&#1088;&#1077;&#1076;&#1091;&#1087;&#1088;&#1077;&#1078;&#1076;&#1077;&#1085;&#1080;&#1077; &#1083;&#1102;&#1076;&#1103;&#1084;'</text></g><g id="elem_UC_ViewLogos"><ellipse cx="944.6774" cy="180.2355" fill="#F1F1F1" rx="146.6774" ry="31.7355" style="stroke:#181818;stroke-width:0.5;"/><text fill="#000000" font-family="sans-serif" font-size="14" lengthAdjust="spacing" textLength="263.5596" x="812.8976" y="183.0822">&#1055;&#1088;&#1086;&#1089;&#1084;&#1086;&#1090;&#1088;&#1077;&#1090;&#1100; '&#1051;&#1086;&#1075;&#1086;&#1090;&#1080;&#1087;&#1099; &#1080; &#1073;&#1072;&#1085;&#1085;&#1077;&#1088;&#1099;'</text></g><g id="elem_UC_GoToPictures"><ellipse cx="944.456" cy="517.8912" fill="#F1F1F1" rx="102.456" ry="22.8912" style="stroke:#181818;stroke-width:0.5;"/><text fill="#000000" font-family="sans-serif" font-size="14" lengthAdjust="spacing" textLength="169.4561" x="859.728" y="520.7379">&#1055;&#1077;&#1088;&#1077;&#1081;&#1090;&#1080; &#1082; '&#1050;&#1072;&#1088;&#1090;&#1080;&#1085;&#1082;&#1072;&#1084;'</text></g><g id="elem_UC_GoToVideos"><ellipse cx="944.6005" cy="602.1201" fill="#F1F1F1" rx="116.1005" ry="25.6201" style="stroke:#181818;stroke-width:0.5;"/><text fill="#000000" font-family="sans-serif" font-size="14" lengthAdjust="spacing" textLength="199.0146" x="845.0932" y="604.9668">&#1055;&#1077;&#1088;&#1077;&#1081;&#1090;&#1080; &#1082; '&#1042;&#1080;&#1076;&#1077;&#1086; &#1079;&#1072;&#1087;&#1080;&#1089;&#1103;&#1084;'</text></g><g id="elem_UC_GoToAudios"><ellipse cx="944.7115" cy="691.1423" fill="#F1F1F1" rx="128.7115" ry="28.1423" style="stroke:#181818;stroke-width:0.5;"/><text fill="#000000" font-family="sans-serif" font-size="14" lengthAdjust="spacing" textLength="225.8525" x="831.7852" y="693.989">&#1055;&#1077;&#1088;&#1077;&#1081;&#1090;&#1080; &#1082; '&#1047;&#1074;&#1091;&#1082;&#1086;&#1074;&#1099;&#1084; &#1079;&#1072;&#1087;&#1080;&#1089;&#1103;&#1084;'</text></g><g id="elem_UC_GoToLibrary"><ellipse cx="944.7163" cy="783.2433" fill="#F1F1F1" rx="131.7163" ry="28.7433" style="stroke:#181818;stroke-width:0.5;"/><text fill="#000000" font-family="sans-serif" font-size="14" lengthAdjust="spacing" textLength="232.1963" x="828.6181" y="786.0899">&#1055;&#1077;&#1088;&#1077;&#1081;&#1090;&#1080; &#1074; &#1088;&#1072;&#1079;&#1076;&#1077;&#1083; '&#1041;&#1080;&#1073;&#1083;&#1080;&#1086;&#1090;&#1077;&#1082;&#1072;'</text></g><g id="elem_UC_ViewBookDetails"><ellipse cx="1519.4218" cy="776.9844" fill="#F1F1F1" rx="125.4218" ry="27.4844" style="stroke:#181818;stroke-width:0.5;"/><text fill="#000000" font-family="sans-serif" font-size="14" lengthAdjust="spacing" textLength="218.8867" x="1409.9784" y="779.831">&#1055;&#1088;&#1086;&#1089;&#1084;&#1086;&#1090;&#1088;&#1077;&#1090;&#1100; &#1086;&#1087;&#1080;&#1089;&#1072;&#1085;&#1080;&#1077; &#1082;&#1085;&#1080;&#1075;&#1080;</text></g><g id="elem_UC_CheckDownload"><ellipse cx="1519.6388" cy="560.1278" fill="#F1F1F1" rx="188.6388" ry="40.1278" style="stroke:#181818;stroke-width:0.5;"/><text fill="#000000" font-family="sans-serif" font-size="14" lengthAdjust="spacing" textLength="350.2256" x="1344.526" y="562.9744">&#1055;&#1088;&#1086;&#1074;&#1077;&#1088;&#1080;&#1090;&#1100; &#1076;&#1086;&#1089;&#1090;&#1091;&#1087;&#1085;&#1086;&#1089;&#1090;&#1100; &#1092;&#1072;&#1081;&#1083;&#1072; &#1076;&#1083;&#1103; &#1089;&#1082;&#1072;&#1095;&#1080;&#1074;&#1072;&#1085;&#1080;&#1103;</text></g><g id="elem_UC_GoToLastRev"><ellipse cx="364.8295" cy="537.9659" fill="#F1F1F1" rx="192.8295" ry="40.9659" style="stroke:#181818;stroke-width:0.5;"/><text fill="#000000" font-family="sans-serif" font-size="14" lengthAdjust="spacing" textLength="358.8115" x="185.4237" y="540.8126">&#1055;&#1077;&#1088;&#1077;&#1081;&#1090;&#1080; &#1085;&#1072; &#1089;&#1090;&#1088;&#1072;&#1085;&#1080;&#1094;&#1091; '&#1055;&#1086;&#1089;&#1083;&#1077;&#1076;&#1085;&#1103;&#1103; &#1072;&#1082;&#1090;&#1091;&#1072;&#1083;&#1080;&#1079;&#1072;&#1094;&#1080;&#1103;'</text></g><g id="elem_UC_VerifyLinksLastRev"><ellipse cx="944.4628" cy="405.1926" fill="#F1F1F1" rx="261.4628" ry="54.6926" style="stroke:#181818;stroke-width:0.5;"/><text fill="#000000" font-family="sans-serif" font-size="14" lengthAdjust="spacing" textLength="498.4629" x="695.2313" y="408.0392">&#1055;&#1088;&#1086;&#1074;&#1077;&#1088;&#1080;&#1090;&#1100; &#1085;&#1072;&#1083;&#1080;&#1095;&#1080;&#1077; &#1089;&#1089;&#1099;&#1083;&#1086;&#1082; &#1085;&#1072; &#1089;&#1090;&#1088;&#1072;&#1085;&#1080;&#1094;&#1077; '&#1055;&#1086;&#1089;&#1083;&#1077;&#1076;&#1085;&#1103;&#1103; &#1072;&#1082;&#1090;&#1091;&#1072;&#1083;&#1080;&#1079;&#1072;&#1094;&#1080;&#1103;'</text></g><!--entity tester--><g id="elem_tester"><ellipse cx="57.5498" cy="471.5" fill="#F1F1F1" rx="8" ry="8" style="stroke:#181818;stroke-width:0.5;"/><path d="M57.5498,479.5 L57.5498,506.5 M44.5498,487.5 L70.5498,487.5 M57.5498,506.5 L44.5498,521.5 M57.5498,506.5 L70.5498,521.5 " fill="transparent" style="stroke:#181818;stroke-width:0.5;"/><text fill="#000000" font-family="sans-serif" font-size="14" lengthAdjust="spacing" textLength="103.0996" x="6" y="535.9951">&#1055;&#1086;&#1083;&#1100;&#1079;&#1086;&#1074;&#1072;&#1090;&#1077;&#1083;&#1100;</text></g><!--link tester to UC_Enter--><g id="link_tester_UC_Enter"><path d="M61.54,462.81 C69.62,371.69 94.69,145.39 148,95 C187.27,57.88 243.5926,51.035 291.2226,52.425 " fill="transparent" id="tester-to-UC_Enter" style="stroke:#181818;stroke-width:1;"/><polygon fill="#181818" points="297.22,52.6,288.3405,48.3392,292.2221,52.4541,288.1071,56.3358,297.22,52.6" style="stroke:#181818;stroke-width:1;"/></g><!--link tester to UC_ChangeLang--><g id="link_tester_UC_ChangeLang"><path d="M63.71,462.89 C75.15,384.94 104.93,211.3 148,172 C181.75,141.2 225.328,131.2397 268.478,129.0097 " fill="transparent" id="tester-to-UC_ChangeLang" style="stroke:#181818;stroke-width:1;"/><polygon fill="#181818" points="274.47,128.7,265.2755,125.1698,269.4767,128.9581,265.6884,133.1592,274.47,128.7" style="stroke:#181818;stroke-width:1;"/></g><!--link tester to UC_GoToEvacuation--><g id="link_tester_UC_GoToEvacuation"><path d="M61.69,462.86 C68.25,409.75 88.15,314.26 148,263 C173.31,241.32 200.4785,230.3664 233.0985,223.7864 " fill="transparent" id="tester-to-UC_GoToEvacuation" style="stroke:#181818;stroke-width:1;"/><polygon fill="#181818" points="238.98,222.6,229.3668,220.4586,234.0787,223.5887,230.9486,228.3006,238.98,222.6" style="stroke:#181818;stroke-width:1;"/></g><!--link tester to UC_GoToTalks--><g id="link_tester_UC_GoToTalks"><path d="M76.06,462.88 C91.19,434.24 115.68,396.26 148,374 C169.19,359.4 188.2267,350.4811 213.2667,342.6011 " fill="transparent" id="tester-to-UC_GoToTalks" style="stroke:#181818;stroke-width:1;"/><polygon fill="#181818" points="218.99,340.8,209.2043,339.6861,214.2206,342.3009,211.6058,347.3172,218.99,340.8" style="stroke:#181818;stroke-width:1;"/></g><!--link tester to UC_GoToAdvRes--><g id="link_tester_UC_GoToAdvRes"><path d="M109.14,488.51 C121.82,485.39 135.41,482.06 148,479 C183.04,470.48 215.4665,462.6438 249.9165,454.3538 " fill="transparent" id="tester-to-UC_GoToAdvRes" style="stroke:#181818;stroke-width:1;"/><polygon fill="#181818" points="255.75,452.95,246.0639,451.1667,250.8888,454.1198,247.9356,458.9446,255.75,452.95" style="stroke:#181818;stroke-width:1;"/></g><!--link tester to UC_GoToPictures--><g id="link_tester_UC_GoToPictures"><path d="M82.91,539.39 C98.65,560.38 121.16,584.41 148,596 C315.29,668.23 377.66,622.13 558,596 C615.34,587.69 626.48,571.75 683,559 C739.49,546.25 797.817,536.915 848.387,529.895 " fill="transparent" id="tester-to-UC_GoToPictures" style="stroke:#181818;stroke-width:1;"/><polygon fill="#181818" points="854.33,529.07,844.8655,526.3455,849.3775,529.7575,845.9655,534.2695,854.33,529.07" style="stroke:#181818;stroke-width:1;"/></g><!--link tester to UC_GoToVideos--><g id="link_tester_UC_GoToVideos"><path d="M70.58,539.02 C83.67,573.11 108.2,621.04 148,643 C267.11,708.72 667.1061,650.2226 848.6161,619.1426 " fill="transparent" id="tester-to-UC_GoToVideos" style="stroke:#181818;stroke-width:1;"/><polygon fill="#181818" points="854.53,618.13,844.984,615.7063,849.6017,618.9739,846.3342,623.5916,854.53,618.13" style="stroke:#181818;stroke-width:1;"/></g><!--link tester to UC_GoToAudios--><g id="link_tester_UC_GoToAudios"><path d="M65.36,539.13 C75.32,582.04 98.35,649.81 148,681 C258.23,750.26 631.4597,723.5364 823.7697,704.3264 " fill="transparent" id="tester-to-UC_GoToAudios" style="stroke:#181818;stroke-width:1;"/><polygon fill="#181818" points="829.74,703.73,820.387,700.6444,824.7648,704.227,821.1822,708.6048,829.74,703.73" style="stroke:#181818;stroke-width:1;"/></g><!--link tester to UC_GoToLibrary--><g id="link_tester_UC_GoToLibrary"><path d="M60.94,539.11 C66.62,592.49 85.45,688.13 148,734 C362.23,891.12 696.7267,841.4386 853.5167,806.1186 " fill="transparent" id="tester-to-UC_GoToLibrary" style="stroke:#181818;stroke-width:1;"/><polygon fill="#181818" points="859.37,804.8,849.711,802.8756,854.4922,805.8988,851.4691,810.6801,859.37,804.8" style="stroke:#181818;stroke-width:1;"/></g><!--link tester to UC_GoToLastRev--><g id="link_tester_UC_GoToLastRev"><path d="M109.29,507.15 C133.89,510.13 159.0336,513.1783 190.9736,517.0483 " fill="transparent" id="tester-to-UC_GoToLastRev" style="stroke:#181818;stroke-width:1;"/><polygon fill="#181818" points="196.93,517.77,188.4765,512.7165,191.9663,517.1686,187.5142,520.6584,196.93,517.77" style="stroke:#181818;stroke-width:1;"/></g><!--reverse link UC_GoToEvacuation to UC_ViewEvacuationInfo--><g id="link_UC_GoToEvacuation_UC_ViewEvacuationInfo"><path d="M461.1315,196.84 C493.6215,189.22 524.69,181.44 558,172 C614.25,156.06 626.48,145.96 683,131 C726.28,119.54 774.16,109.16 816.94,100.68 " fill="transparent" id="UC_GoToEvacuation-backto-UC_ViewEvacuationInfo" style="stroke:#181818;stroke-width:1;stroke-dasharray:7.0,7.0;"/><polygon fill="#181818" points="455.29,198.21,464.9656,200.0493,460.1579,197.0683,463.1389,192.2606,455.29,198.21" style="stroke:#181818;stroke-width:1;"/><text fill="#000000" font-family="sans-serif" font-size="13" lengthAdjust="spacing" textLength="63.0068" x="589" y="137.0669">&#171;include&#187;</text></g><!--reverse link UC_GoToAdvRes to UC_ViewWarning--><g id="link_UC_GoToAdvRes_UC_ViewWarning"><path d="M473.6844,398.2462 C502.8644,390.2062 528.87,382.79 558,374 C613.97,357.11 626.45,347.86 683,333 C726.93,321.45 775.63,311.09 818.91,302.72 " fill="transparent" id="UC_GoToAdvRes-backto-UC_ViewWarning" style="stroke:#181818;stroke-width:1;stroke-dasharray:7.0,7.0;"/><polygon fill="#181818" points="467.9,399.84,477.6392,401.3056,472.7204,398.5118,475.5141,393.593,467.9,399.84" style="stroke:#181818;stroke-width:1;"/><text fill="#000000" font-family="sans-serif" font-size="13" lengthAdjust="spacing" textLength="63.0068" x="589" y="339.0669">&#171;include&#187;</text></g><!--reverse link UC_GoToAdvRes to UC_ViewLogos--><g id="link_UC_GoToAdvRes_UC_ViewLogos"><path d="M502.4971,404.3292 C524.4371,396.6992 540.17,388.25 558,374 C580.06,356.37 570.8,340.39 588,318 C623.24,272.11 631.4,255.17 683,229 C720.96,209.75 765.5,198.01 806.91,190.87 " fill="transparent" id="UC_GoToAdvRes-backto-UC_ViewLogos" style="stroke:#181818;stroke-width:1;stroke-dasharray:7.0,7.0;"/><polygon fill="#181818" points="496.83,406.3,506.6445,407.1218,501.5526,404.6576,504.0167,399.5657,496.83,406.3" style="stroke:#181818;stroke-width:1;"/><text fill="#000000" font-family="sans-serif" font-size="13" lengthAdjust="spacing" textLength="63.0068" x="589" y="243.0669">&#171;include&#187;</text></g><!--reverse link UC_GoToLibrary to UC_ViewBookDetails--><g id="link_UC_GoToLibrary_UC_ViewBookDetails"><path d="M1081.8797,781.5678 C1177.3197,780.5778 1300.04,779.29 1394.06,778.3 " fill="transparent" id="UC_GoToLibrary-backto-UC_ViewBookDetails" style="stroke:#181818;stroke-width:1;stroke-dasharray:7.0,7.0;"/><polygon fill="#181818" points="1075.88,781.63,1084.921,785.5364,1080.8797,781.5781,1084.838,777.5369,1075.88,781.63" style="stroke:#181818;stroke-width:1;"/><text fill="#000000" font-family="sans-serif" font-size="13" lengthAdjust="spacing" textLength="63.0068" x="1237" y="776.0669">&#171;include&#187;</text></g><!--reverse link UC_ViewWarning to UC_CheckDownload--><g id="link_UC_ViewWarning_UC_CheckDownload"><path d="M1091.6606,298.7104 C1131.5906,306.4404 1168.51,316.59 1206,333 C1313.81,380.19 1420.67,469.36 1477.21,520.78 " fill="transparent" id="UC_ViewWarning-backto-UC_CheckDownload" style="stroke:#181818;stroke-width:1;stroke-dasharray:7.0,7.0;"/><polygon fill="#181818" points="1085.77,297.57,1093.8457,303.2076,1090.6789,298.5203,1095.3662,295.3535,1085.77,297.57" style="stroke:#181818;stroke-width:1;"/><text fill="#000000" font-family="sans-serif" font-size="13" lengthAdjust="spacing" textLength="63.0068" x="1237" y="348.0669">&#171;include&#187;</text></g><!--reverse link UC_ViewLogos to UC_CheckDownload--><g id="link_UC_ViewLogos_UC_CheckDownload"><path d="M1089.5924,190.9518 C1130.7324,198.0618 1168.81,209 1206,229 C1338.77,300.4 1447.18,449.17 1493.82,520.37 " fill="transparent" id="UC_ViewLogos-backto-UC_CheckDownload" style="stroke:#181818;stroke-width:1;stroke-dasharray:7.0,7.0;"/><polygon fill="#181818" points="1083.68,189.93,1091.8673,195.4043,1088.607,190.7815,1093.2297,187.5211,1083.68,189.93" style="stroke:#181818;stroke-width:1;"/><text fill="#000000" font-family="sans-serif" font-size="13" lengthAdjust="spacing" textLength="63.0068" x="1237" y="244.0669">&#171;include&#187;</text></g><!--reverse link UC_GoToPictures to UC_CheckDownload--><g id="link_UC_GoToPictures_UC_CheckDownload"><path d="M1048.034,525.5184 C1129.524,531.4884 1242.35,539.76 1340.94,546.98 " fill="transparent" id="UC_GoToPictures-backto-UC_CheckDownload" style="stroke:#181818;stroke-width:1;stroke-dasharray:7.0,7.0;"/><polygon fill="#181818" points="1042.05,525.08,1050.7337,529.7269,1047.0366,525.4453,1051.3182,521.7483,1042.05,525.08" style="stroke:#181818;stroke-width:1;"/><text fill="#000000" font-family="sans-serif" font-size="13" lengthAdjust="spacing" textLength="63.0068" x="1237" y="537.0669">&#171;include&#187;</text></g><!--reverse link UC_GoToVideos to UC_CheckDownload--><g id="link_UC_GoToVideos_UC_CheckDownload"><path d="M1060.9439,593.5409 C1141.7539,587.6109 1247.47,579.87 1340.97,573.01 " fill="transparent" id="UC_GoToVideos-backto-UC_CheckDownload" style="stroke:#181818;stroke-width:1;stroke-dasharray:7.0,7.0;"/><polygon fill="#181818" points="1054.96,593.98,1064.2286,597.3106,1059.9466,593.6141,1063.6431,589.3321,1054.96,593.98" style="stroke:#181818;stroke-width:1;"/><text fill="#000000" font-family="sans-serif" font-size="13" lengthAdjust="spacing" textLength="63.0068" x="1237" y="573.0669">&#171;include&#187;</text></g><!--reverse link UC_GoToAudios to UC_CheckDownload--><g id="link_UC_GoToAudios_UC_CheckDownload"><path d="M1055.4779,673.8606 C1103.3279,665.8606 1154.8,656.46 1206,645 C1273.9,629.8 1349.18,609.44 1408.83,592.45 " fill="transparent" id="UC_GoToAudios-backto-UC_CheckDownload" style="stroke:#181818;stroke-width:1;stroke-dasharray:7.0,7.0;"/><polygon fill="#181818" points="1049.56,674.85,1059.0964,677.3111,1054.4916,674.0255,1057.7772,669.4207,1049.56,674.85" style="stroke:#181818;stroke-width:1;"/><text fill="#000000" font-family="sans-serif" font-size="13" lengthAdjust="spacing" textLength="63.0068" x="1237" y="621.0669">&#171;include&#187;</text></g><!--reverse link UC_GoToLibrary to UC_CheckDownload--><g id="link_UC_GoToLibrary_UC_CheckDownload"><path d="M1068.6986,769.4269 C1114.2986,762.3269 1160.49,752.39 1206,736 C1302.22,701.34 1403.61,638.71 1463.93,598.26 " fill="transparent" id="UC_GoToLibrary-backto-UC_CheckDownload" style="stroke:#181818;stroke-width:1;stroke-dasharray:7.0,7.0;"/><polygon fill="#181818" points="1062.77,770.35,1072.2782,772.9177,1067.7105,769.5808,1071.0475,765.013,1062.77,770.35" style="stroke:#181818;stroke-width:1;"/><text fill="#000000" font-family="sans-serif" font-size="13" lengthAdjust="spacing" textLength="63.0068" x="1237" y="693.0669">&#171;include&#187;</text></g><!--reverse link UC_GoToLastRev to UC_VerifyLinksLastRev--><g id="link_UC_GoToLastRev_UC_VerifyLinksLastRev"><path d="M502.5271,506.5539 C582.8871,488.0539 681,465.46 768.42,445.32 " fill="transparent" id="UC_GoToLastRev-backto-UC_VerifyLinksLastRev" style="stroke:#181818;stroke-width:1;stroke-dasharray:7.0,7.0;"/><polygon fill="#181818" points="496.68,507.9,506.348,509.7789,501.5525,506.7783,504.5532,501.9828,496.68,507.9" style="stroke:#181818;stroke-width:1;"/><text fill="#000000" font-family="sans-serif" font-size="13" lengthAdjust="spacing" textLength="63.0068" x="589" y="472.0669">&#171;include&#187;</text></g><!--SRC=[dLRBJjj05DtxAwxOf5t01rG8YHPKLSgYujLbDTX36CNOoEE0K5M9HzKkQ8dAfbAxe7HVoJnIGaB2BypyKS-C4yZW54WtnfwvzznpNoUKQ55oyXaUWM2LXAtHIfnGkiefvJBb0MtoPIbIJikm2IYEQ9w7F1ArDMiWlH8jhWVCMefqbSfYEM795acVHomHiVIyaA-abCQKYCfgYZ09zrCHHvwiYcYTcP3hpA-o2fzFjq9Evff5bP1x7lDJa1bJHwghslgpki3VKvNfNTKmtsF4P4upyRmRDzZ_KWsz0wkctjPxiBtI- -gIrB7ArANUfIUmu-7MkDpWAPj8QgIQf7VKgQuZGgOwgWFxnjCnUkSHrIItvHbJXuX-QL099fdni72MnUABjxEHuJ7eSAok4Bm36hlwCnbquBPk75NMTtsnQXYLyN3yZv36DX1wGKy9NnaedflqgQH-csAe5bBCz4T4gPVwW2_ZXNXsW_arPYljW0Aa2mfNUEuQU4jEDP7q1nnjuo97Eo3aUqBwYnj5DVj1bWJVl0toAbg9HsB_qtwTsPOYhjv7OMnbSTg4bMb4qpJFoMg1XLKvIfpfO8CdgP0Ygc2qP5nBV2uTI5ZCSVc88fNiUKETenRNzksFZM9v4YRo05Vr0SAcGczO4ecxZVq7_0yKuyoS0V0Q1J7vdEGJQPBK-mvoEQx4zvQY1SZlwDgs1Uoe5g3SQhuMVbfB-8CeXxOZ3TKbko7N68yT9rC3jYG2_Z2XRzYpFL11sx4DL_S1JjS24O_KRFKLH4zK6y-kLGcax43svEan6z7DMVNd4Epjovcx0C_Zk3e36H6Xf28gHjlmpGK09Bj6bipq02f_XovyC780pfcnQEkw4GZmrfyGxJGFh-ktKi7zwaoy6OKn2-uhJIvHDg4SugFUCnDiKssRASR6rn7DBhSXbTcwNGmLapAJwHpVU2Z3JWvYgJTC-1tqk0shrZ12CFalGaiy4IjRPH5LPP-Nzzxpyby26X-VkfLZzsn0PzsBEtfPlCnbftZUquxYnSrc5QzwUp84B9_tuaL_QeVSzFCl946J4nF3LPgUqUIaYFom5l2fAS_9PD2hfroFDRToDDou_q_1WFNWthW-tftmFITdy8jXRXaypdwmHoEuvBqRmI7lwGWETsfrduVd3i5DUGlhuVhz1G00]--></g></svg>